<svg xmlns="http://www.w3.org/2000/svg" xmlns:xlink="http://www.w3.org/1999/xlink" width="500" zoomAndPan="magnify" viewBox="0 0 375 374.999991" height="500" preserveAspectRatio="xMidYMid meet" version="1.0"><defs><clipPath id="id1"><path d="M 126.09375 86.070312 L 236.207031 86.070312 L 236.207031 109.925781 L 126.09375 109.925781 Z M 126.09375 86.070312 " clip-rule="nonzero"/></clipPath><clipPath id="id2"><path d="M 47.109375 86.0625 L 115.011719 86.0625 L 115.011719 220.949219 L 47.109375 220.949219 Z M 47.109375 86.0625 " clip-rule="nonzero"/></clipPath><clipPath id="id3"><path d="M 54.53125 228.425781 L 115.089844 228.425781 L 115.089844 288.988281 L 54.53125 288.988281 Z M 54.53125 228.425781 " clip-rule="nonzero"/></clipPath><clipPath id="id4"><path d="M 236.21875 86.066406 L 272.921875 86.066406 L 272.921875 288.855469 L 236.21875 288.855469 Z M 236.21875 86.066406 " clip-rule="nonzero"/></clipPath><clipPath id="id5"><path d="M 125.652344 86.066406 L 162.355469 86.066406 L 162.355469 288.855469 L 125.652344 288.855469 Z M 125.652344 86.066406 " clip-rule="nonzero"/></clipPath><clipPath id="id6"><path d="M 189.050781 86.066406 L 225.753906 86.066406 L 225.753906 288.855469 L 189.050781 288.855469 Z M 189.050781 86.066406 " clip-rule="nonzero"/></clipPath><clipPath id="id7"><path d="M 136.609375 178.972656 L 225.613281 178.972656 L 225.613281 215.675781 L 136.609375 215.675781 Z M 136.609375 178.972656 " clip-rule="nonzero"/></clipPath><clipPath id="id8"><path d="M 111.152344 86.066406 L 272.648438 86.066406 L 272.648438 122.769531 L 111.152344 122.769531 Z M 111.152344 86.066406 " clip-rule="nonzero"/></clipPath><clipPath id="id9"><path d="M 189.96875 86.066406 L 327.605469 86.066406 L 327.605469 122.769531 L 189.96875 122.769531 Z M 189.96875 86.066406 " clip-rule="nonzero"/></clipPath></defs><g clip-path="url(#id1)"><path fill="#49deff" d="M 236.179688 97.449219 L 236.179688 98.546875 C 236.179688 101.5625 235 104.457031 232.898438 106.59375 C 230.800781 108.726562 227.953125 109.925781 224.980469 109.925781 L 137.320312 109.925781 C 134.351562 109.925781 131.5 108.726562 129.402344 106.59375 C 127.300781 104.457031 126.121094 101.5625 126.121094 98.546875 L 126.121094 97.449219 C 126.121094 94.429688 127.300781 91.535156 129.402344 89.402344 C 131.5 87.269531 134.351562 86.070312 137.320312 86.070312 L 224.980469 86.070312 C 227.953125 86.070312 230.800781 87.269531 232.898438 89.402344 C 235 91.535156 236.179688 94.429688 236.179688 97.449219 " fill-opacity="1" fill-rule="nonzero"/></g><g clip-path="url(#id2)"><path fill="#49deff" d="M 47.113281 153.503906 C 47.113281 190.75 77.511719 220.941406 115.011719 220.941406 L 115.011719 86.070312 C 77.511719 86.070312 47.113281 116.261719 47.113281 153.503906 Z M 47.113281 153.503906 " fill-opacity="1" fill-rule="nonzero"/></g><g clip-path="url(#id3)"><path fill="#ffbd59" d="M 115.089844 228.425781 C 81.644531 228.425781 54.53125 255.539062 54.53125 288.984375 L 115.089844 288.984375 Z M 115.089844 228.425781 " fill-opacity="1" fill-rule="nonzero"/></g><g clip-path="url(#id4)"><path fill="#49deff" d="M 236.21875 86.097656 L 272.921875 86.097656 L 272.921875 288.820312 L 236.21875 288.820312 L 236.21875 86.097656 " fill-opacity="1" fill-rule="nonzero"/></g><g clip-path="url(#id5)"><path fill="#49deff" d="M 125.652344 86.09375 L 162.355469 86.09375 L 162.355469 288.828125 L 125.652344 288.828125 L 125.652344 86.09375 " fill-opacity="1" fill-rule="nonzero"/></g><g clip-path="url(#id6)"><path fill="#49deff" d="M 189.050781 86.09375 L 225.753906 86.09375 L 225.753906 288.828125 L 189.050781 288.828125 L 189.050781 86.09375 " fill-opacity="1" fill-rule="nonzero"/></g><g clip-path="url(#id7)"><path fill="#49deff" d="M 225.605469 215.675781 L 136.617188 215.675781 L 136.617188 178.972656 L 225.605469 178.972656 L 225.605469 215.675781 " fill-opacity="1" fill-rule="nonzero"/></g><g clip-path="url(#id8)"><path fill="#49deff" d="M 111.171875 86.066406 L 272.628906 86.066406 L 272.628906 122.769531 L 111.171875 122.769531 L 111.171875 86.066406 " fill-opacity="1" fill-rule="nonzero"/></g><g clip-path="url(#id9)"><path fill="#49deff" d="M 224.390625 86.066406 L 327.582031 86.066406 L 293.183594 122.769531 L 189.992188 122.769531 L 224.390625 86.066406 " fill-opacity="1" fill-rule="nonzero"/></g></svg>